<?xml version="1.0" encoding="UTF-8" standalone="no"?>
<svg xmlns:dc="http://purl.org/dc/elements/1.1/" xmlns:cc="http://creativecommons.org/ns#" xmlns:rdf="http://www.w3.org/1999/02/22-rdf-syntax-ns#" xmlns:svg="http://www.w3.org/2000/svg" xmlns="http://www.w3.org/2000/svg" xmlns:sodipodi="http://sodipodi.sourceforge.net/DTD/sodipodi-0.dtd" xmlns:inkscape="http://www.inkscape.org/namespaces/inkscape" id="svg" width="307" height="70" viewBox="0 0 307 69.99999" version="1.1" inkscape:version="0.48.5 r10040" sodipodi:docname="image2vector.svg">
  <metadata id="metadata9">
    <rdf:RDF>
      <cc:Work rdf:about="">
        <dc:format>image/svg+xml</dc:format>
        <dc:type rdf:resource="http://purl.org/dc/dcmitype/StillImage"/>
        <dc:title/>
      </cc:Work>
    </rdf:RDF>
  </metadata>
  <defs id="defs7"/>
  <sodipodi:namedview pagecolor="#ffffff" bordercolor="#666666" borderopacity="1" objecttolerance="10" gridtolerance="10" guidetolerance="10" inkscape:pageopacity="0" inkscape:pageshadow="2" inkscape:window-width="1068" inkscape:window-height="659" id="namedview5" showgrid="false" inkscape:snap-page="false" inkscape:zoom="1.43" inkscape:cx="173.37936" inkscape:cy="83.00323" inkscape:window-x="243" inkscape:window-y="5" inkscape:window-maximized="0" inkscape:current-layer="svg"/>
  <path style="fill:#0066a1;fill-opacity:1;fill-rule:evenodd;stroke:none" inkscape:connector-curvature="0" d="m 3,12.763548 0,3.28 0.725,0 c 1.367,0 2.573,0.895 2.96,2.197 0.098,0.332 2.538,10.251 5.421,22.043 l 5.242,21.440003 6.387,0.042 6.386,0.042 3.999,-16.002 c 2.199,-8.801003 4.036,-16.002003 4.082,-16.002003 0.046,0 1.841,7.11 3.989,15.800003 2.148,8.69 3.936,15.89 3.974,16 0.067,0.195 12.835,0.32 12.835,0.125 0,-0.322 11.269,-43.594003 11.438,-43.921003 0.573,-1.108 1.685,-1.761 3.002,-1.763 l 0.6,-10e-4 0,-3.28 0,-3.2800002 -9.6,0 -9.6,0 0,3.2610002 0,3.26 1.965,0.066 c 3.941,0.131 4.35,0.911 3.103,5.916 -0.381,1.527 -1.945,8.01 -3.477,14.407 -1.532,6.396 -2.817,11.597003 -2.856,11.558003 -0.039,-0.039 -2.206,-8.692003 -4.815,-19.229003 l -4.745,-19.1590002 -4.5,-0.042 -4.501,-0.043 -0.161,0.6030002 c -0.088,0.331 -2.262,9.062 -4.831,19.402 l -4.67,18.800003 -2.381,-10.560003 c -1.31,-5.808 -2.944,-13.062 -3.632,-16.12 l -1.251,-5.56 3.096,0 3.096,0 0,-3.28 0,-3.2800002 -10.64,0 -10.64,0 0,3.2800002 m 212.32,-1.624 c -5.271,1.169 -6.147,8.21 -1.304,10.48 3.853,1.807 8.104,-0.825 8.104,-5.016 0,-3.765 -3.128,-6.279 -6.8,-5.464 m -79.635,21.984 c 0.063,23.606003 -0.014,22.077003 1.236,24.626003 2.389,4.872 10.477,5.6 18.492,1.663 l 1.571,-0.771 0.808,0.607 c 5.261,3.955 13.877,3.415 18.631,-1.169 l 0.793,-0.764 0.19,0.924 c 0.521,2.525 0.691,2.604 5.589,2.604 l 3.85,0 -0.042,-23.240003 -0.043,-23.24 -0.4,-0.797 c -0.693,-1.382 -0.882,-1.434 -5.4,-1.495 l -3.88,-0.053 0,7.132 0,7.132 -0.774,-0.555 c -5.496,-3.949 -15.409,-2.845 -20.172,2.246 -4.955,5.297 -6.464,17.628003 -3.071,25.099003 0.576,1.269 0.578,1.264 -0.69,1.508 -3.189,0.615 -5.426,-0.011 -6.373,-1.784 l -0.36,-0.673 -0.091,-18.640003 c -0.089,-18.15 -0.12,-19.212 -0.589,-20.084 -0.635,-1.178 -1.385,-1.354 -5.766,-1.355 l -3.565,-0.001 0.056,21.08 m 56.915,-1.177 c 0,23.913003 0.01,24.054003 1.814,26.690003 2.744,4.011 10.724,4.268 18.135,0.585 l 1.642,-0.816 1.244,1.283 c 1.654,1.704 2.361,1.987 5.196,2.08 3.037,0.1 6.228,-0.501 9.129,-1.72 l 1.08,-0.454 0,0.625 0,0.624 4.959,0 4.959,0 0.041,-13.799 0.041,-13.799003 1.754,-0.527 c 4.456,-1.338 8.354,-1.413 9.75,-0.187 1.178,1.033 1.125,0.538 1.232,11.592 0.118,12.078003 0.304,13.215003 2.528,15.439003 3.421,3.421 12.062,2.878 18.976,-1.193 0.48,-0.282 0.48,-0.282 1.36,0.313 6.056,4.097 17.169,4.234 24.985,0.308 l 1.415,-0.71 0,-3.519 0,-3.518 -1.626,0 c -1.529,0 -1.67,0.028 -2.364,0.473 -5.307,3.406 -13.392,3.491 -16.376,0.171 -1.266,-1.409 -2.079,-3.461 -2.299,-5.804 l -0.101,-1.080003 12.013,0 12.013,0 0.113,-0.75 c 0.56,-3.737 -0.512,-10.353 -2.183,-13.462 -5.235,-9.743 -21.936,-10.088 -28.989,-0.599 -4.398,5.917 -5.115,16.381003 -1.57,22.926003 0.561,1.035 0.563,1.033 -0.852,1.348 -1.629,0.361 -4.359,0.284 -5.172,-0.146 -1.999,-1.058 -1.967,-0.852 -1.967,-12.605003 0,-12.447 -0.152,-13.44 -2.419,-15.837 -3.447,-3.645 -12.949,-3.181 -19.325,0.944 l -1.132,0.732 -0.096,-0.435 c -0.602,-2.721 -0.674,-2.756 -5.739,-2.756 l -3.927,0 -0.041,14.76 -0.041,14.760003 -1.28,0.367 c -3.756,1.076 -6.516,0.482 -7.459,-1.603 l -0.381,-0.844 -0.08,-12.560003 -0.08,-12.56 -0.4,-0.792 c -0.729,-1.442 -0.723,-1.441 -5.291,-1.498 l -3.989,-0.05 0,14.778 0,14.778003 -1.4,0.372 c -2.929,0.778 -5.455,0.586 -6.703,-0.51 -1.173,-1.029 -1.087,0.428 -1.187,-20.198003 -0.099,-20.292 -0.071,-19.719 -1.024,-20.714 -0.657,-0.685 -1.459,-0.806 -5.357,-0.806 l -3.529,0 0,19.903 m -106.252,-8.438 c -0.638,0.172 -2.597,4.102 -3.177,6.375 -2.274,8.912 1.607,17.720003 9.754,22.141003 l 1.182,0.642 -1.354,0.649 c -9.862,4.729 -19.58,-7.353 -13.651,-16.971003 0.521,-0.844 0.698,-1.295 0.698,-1.776 0,-2.111 1.079,-6.884 2.013,-8.906 0.679,-1.47 0.708,-1.447 -0.982,-0.758 -15.232,6.21 -15.666,28.308003 -0.692,35.204003 19.433998,8.95099 36.838,-15.950003 21.741,-31.107003 -3.9,-3.915 -11.459,-6.589 -15.532,-5.493 m 41.822,0.046 c -2.685,0.427 -5.421,1.768 -7.428,3.642 l -0.737,0.689 -0.174,-0.866 c -0.523,-2.602 -0.636,-2.655 -5.671,-2.655 l -3.96,-10e-4 0,18.24 0,18.240003 4.96,0 4.96,0 0,-13.289 0,-13.289003 0.847,-0.374 c 2.227,-0.985 4.701,-1.482 8.553,-1.72 l 3.08,-0.189 0,-4.111 0,-4.111 -0.36,-0.104 c -0.609,-0.177 -3.194,-0.242 -4.07,-0.102 m 160.476,6.572 c 3.12,0.452 4.817,2.79 5.168,7.126 l 0.11,1.351 -6.878,0 -6.878,0 0.138,-0.92 c 0.656,-4.407 2.748,-7.088 5.892,-7.551 1.229,-0.181 1.235,-0.181 2.448,-0.006 m -194.642,2.589 c 3.783,2.452 5.911998,7.441 5.098,11.945 -0.295,1.631003 -0.198,1.542003 -1.262,1.144003 -4.878,-1.825003 -8.226,-8.731003 -6.688,-13.796003 l 0.18,-0.595 0.834,0.325 c 0.459,0.18 1.286,0.619 1.838,0.977 m 80.356,-0.854 c 0.572,0.186 1.418,0.557 1.88,0.824 l 0.84,0.484 0,9.011 0,9.010003 -1.2,0.897 c -4.846,3.619 -10.512,3.092 -12.515,-1.164 -1.797,-3.818 -1.814,-11.682003 -0.032,-15.324003 1.766,-3.611 6.491,-5.213 11.027,-3.738" id="path0"/>
</svg>